<svg width="136" height="26" viewBox="0 0 136 26" fill="none" xmlns="http://www.w3.org/2000/svg">
<path d="M9.875 21.1875V13.6562C9.875 13.1146 9.78646 12.651 9.60938 12.2656C9.43229 11.8698 9.15625 11.5625 8.78125 11.3438C8.41667 11.125 7.94271 11.0156 7.35938 11.0156C6.85938 11.0156 6.42708 11.1042 6.0625 11.2812C5.69792 11.4479 5.41667 11.6927 5.21875 12.0156C5.02083 12.3281 4.92188 12.6979 4.92188 13.125H0.421875C0.421875 12.4062 0.588542 11.724 0.921875 11.0781C1.25521 10.4323 1.73958 9.86458 2.375 9.375C3.01042 8.875 3.76562 8.48438 4.64062 8.20312C5.52604 7.92188 6.51562 7.78125 7.60938 7.78125C8.92188 7.78125 10.0885 8 11.1094 8.4375C12.1302 8.875 12.9323 9.53125 13.5156 10.4062C14.1094 11.2812 14.4062 12.375 14.4062 13.6875V20.9219C14.4062 21.849 14.4635 22.6094 14.5781 23.2031C14.6927 23.7865 14.8594 24.2969 15.0781 24.7344V25H10.5312C10.3125 24.5417 10.1458 23.9688 10.0312 23.2812C9.92708 22.5833 9.875 21.8854 9.875 21.1875ZM10.4688 14.7031L10.5 17.25H7.98438C7.39062 17.25 6.875 17.3177 6.4375 17.4531C6 17.5885 5.64062 17.7812 5.35938 18.0312C5.07812 18.2708 4.86979 18.5521 4.73438 18.875C4.60938 19.1979 4.54688 19.5521 4.54688 19.9375C4.54688 20.3229 4.63542 20.6719 4.8125 20.9844C4.98958 21.2865 5.24479 21.526 5.57812 21.7031C5.91146 21.8698 6.30208 21.9531 6.75 21.9531C7.42708 21.9531 8.01562 21.8177 8.51562 21.5469C9.01562 21.276 9.40104 20.9427 9.67188 20.5469C9.95312 20.151 10.099 19.776 10.1094 19.4219L11.2969 21.3281C11.1302 21.7552 10.901 22.1979 10.6094 22.6562C10.3281 23.1146 9.96875 23.5469 9.53125 23.9531C9.09375 24.349 8.56771 24.6771 7.95312 24.9375C7.33854 25.1875 6.60938 25.3125 5.76562 25.3125C4.69271 25.3125 3.71875 25.099 2.84375 24.6719C1.97917 24.2344 1.29167 23.6354 0.78125 22.875C0.28125 22.1042 0.03125 21.2292 0.03125 20.25C0.03125 19.3646 0.197917 18.5781 0.53125 17.8906C0.864583 17.2031 1.35417 16.625 2 16.1562C2.65625 15.6771 3.47396 15.3177 4.45312 15.0781C5.43229 14.8281 6.56771 14.7031 7.85938 14.7031H10.4688ZM22.7031 20.625L26.2188 8.09375H29.0781L28.1562 13.0156L24.6406 25H22.25L22.7031 20.625ZM20.9219 8.09375L23.4375 20.6094L23.6719 25H20.8594L16.5781 8.09375H20.9219ZM32.2969 20.4062L34.75 8.09375H39.1094L34.8281 25H32.0312L32.2969 20.4062ZM29.4688 8.09375L32.9688 20.5312L33.4531 25H31.0469L27.5312 13.0312L26.6406 8.09375H29.4688ZM41.375 1H45.875V21.125L45.4219 25H41.375V1ZM56.5781 16.375V16.7031C56.5781 17.9635 56.4427 19.1198 56.1719 20.1719C55.9115 21.224 55.5052 22.1354 54.9531 22.9062C54.401 23.6667 53.7135 24.2604 52.8906 24.6875C52.0781 25.1042 51.1198 25.3125 50.0156 25.3125C48.9844 25.3125 48.0885 25.1042 47.3281 24.6875C46.5781 24.2708 45.9479 23.6823 45.4375 22.9219C44.9271 22.1615 44.5156 21.2708 44.2031 20.25C43.8906 19.2292 43.6562 18.1146 43.5 16.9062V16.1875C43.6562 14.9792 43.8906 13.8646 44.2031 12.8438C44.5156 11.8229 44.9271 10.9323 45.4375 10.1719C45.9479 9.41146 46.5781 8.82292 47.3281 8.40625C48.0781 7.98958 48.9635 7.78125 49.9844 7.78125C51.099 7.78125 52.0677 7.99479 52.8906 8.42188C53.724 8.83854 54.4115 9.43229 54.9531 10.2031C55.5052 10.9635 55.9115 11.8698 56.1719 12.9219C56.4427 13.9635 56.5781 15.1146 56.5781 16.375ZM52.0781 16.7031V16.375C52.0781 15.6875 52.026 15.0417 51.9219 14.4375C51.8281 13.8229 51.6615 13.2865 51.4219 12.8281C51.1823 12.3594 50.8542 11.9896 50.4375 11.7188C50.0312 11.4479 49.5052 11.3125 48.8594 11.3125C48.2448 11.3125 47.724 11.4167 47.2969 11.625C46.8698 11.8333 46.5156 12.125 46.2344 12.5C45.9635 12.875 45.7604 13.3229 45.625 13.8438C45.4896 14.3542 45.4062 14.9167 45.375 15.5312V17.5781C45.4062 18.401 45.5417 19.1302 45.7812 19.7656C46.0312 20.3906 46.4062 20.8854 46.9062 21.25C47.4167 21.6042 48.0781 21.7812 48.8906 21.7812C49.526 21.7812 50.0521 21.6562 50.4688 21.4062C50.8854 21.1562 51.2083 20.8021 51.4375 20.3438C51.6771 19.8854 51.8438 19.349 51.9375 18.7344C52.0312 18.1094 52.0781 17.4323 52.0781 16.7031ZM76.9375 8.09375V11.2812H67.0938V8.09375H76.9375ZM69.5312 3.92188H74.0312V19.9062C74.0312 20.3958 74.0938 20.7708 74.2188 21.0312C74.3542 21.2917 74.5521 21.474 74.8125 21.5781C75.0729 21.6719 75.401 21.7188 75.7969 21.7188C76.0781 21.7188 76.3281 21.7083 76.5469 21.6875C76.776 21.6562 76.9688 21.625 77.125 21.5938L77.1406 24.9062C76.7552 25.0312 76.3385 25.1302 75.8906 25.2031C75.4427 25.276 74.9479 25.3125 74.4062 25.3125C73.4167 25.3125 72.5521 25.151 71.8125 24.8281C71.0833 24.4948 70.5208 23.9635 70.125 23.2344C69.7292 22.5052 69.5312 21.5469 69.5312 20.3594V3.92188ZM88.625 21.1875V13.6562C88.625 13.1146 88.5365 12.651 88.3594 12.2656C88.1823 11.8698 87.9062 11.5625 87.5312 11.3438C87.1667 11.125 86.6927 11.0156 86.1094 11.0156C85.6094 11.0156 85.1771 11.1042 84.8125 11.2812C84.4479 11.4479 84.1667 11.6927 83.9688 12.0156C83.7708 12.3281 83.6719 12.6979 83.6719 13.125H79.1719C79.1719 12.4062 79.3385 11.724 79.6719 11.0781C80.0052 10.4323 80.4896 9.86458 81.125 9.375C81.7604 8.875 82.5156 8.48438 83.3906 8.20312C84.276 7.92188 85.2656 7.78125 86.3594 7.78125C87.6719 7.78125 88.8385 8 89.8594 8.4375C90.8802 8.875 91.6823 9.53125 92.2656 10.4062C92.8594 11.2812 93.1562 12.375 93.1562 13.6875V20.9219C93.1562 21.849 93.2135 22.6094 93.3281 23.2031C93.4427 23.7865 93.6094 24.2969 93.8281 24.7344V25H89.2812C89.0625 24.5417 88.8958 23.9688 88.7812 23.2812C88.6771 22.5833 88.625 21.8854 88.625 21.1875ZM89.2188 14.7031L89.25 17.25H86.7344C86.1406 17.25 85.625 17.3177 85.1875 17.4531C84.75 17.5885 84.3906 17.7812 84.1094 18.0312C83.8281 18.2708 83.6198 18.5521 83.4844 18.875C83.3594 19.1979 83.2969 19.5521 83.2969 19.9375C83.2969 20.3229 83.3854 20.6719 83.5625 20.9844C83.7396 21.2865 83.9948 21.526 84.3281 21.7031C84.6615 21.8698 85.0521 21.9531 85.5 21.9531C86.1771 21.9531 86.7656 21.8177 87.2656 21.5469C87.7656 21.276 88.151 20.9427 88.4219 20.5469C88.7031 20.151 88.849 19.776 88.8594 19.4219L90.0469 21.3281C89.8802 21.7552 89.651 22.1979 89.3594 22.6562C89.0781 23.1146 88.7188 23.5469 88.2812 23.9531C87.8438 24.349 87.3177 24.6771 86.7031 24.9375C86.0885 25.1875 85.3594 25.3125 84.5156 25.3125C83.4427 25.3125 82.4688 25.099 81.5938 24.6719C80.7292 24.2344 80.0417 23.6354 79.5312 22.875C79.0312 22.1042 78.7812 21.2292 78.7812 20.25C78.7812 19.3646 78.9479 18.5781 79.2812 17.8906C79.6146 17.2031 80.1042 16.625 80.75 16.1562C81.4062 15.6771 82.224 15.3177 83.2031 15.0781C84.1823 14.8281 85.3177 14.7031 86.6094 14.7031H89.2188ZM101.375 1V25H96.8594V1H101.375ZM109.594 0.984375V25H105.094V0.984375H109.594ZM120.25 8.09375L112.906 16.4688L108.969 20.4531L107.328 17.2031L110.453 13.2344L114.844 8.09375H120.25ZM115.578 25L110.578 17.1875L113.688 14.4688L120.766 25H115.578ZM131.328 20.3281C131.328 20.0052 131.234 19.7135 131.047 19.4531C130.859 19.1927 130.51 18.9531 130 18.7344C129.5 18.5052 128.776 18.2969 127.828 18.1094C126.974 17.9219 126.177 17.6875 125.438 17.4062C124.708 17.1146 124.073 16.7656 123.531 16.3594C123 15.9531 122.583 15.474 122.281 14.9219C121.979 14.3594 121.828 13.7188 121.828 13C121.828 12.2917 121.979 11.625 122.281 11C122.594 10.375 123.036 9.82292 123.609 9.34375C124.193 8.85417 124.901 8.47396 125.734 8.20312C126.578 7.92188 127.526 7.78125 128.578 7.78125C130.047 7.78125 131.307 8.01562 132.359 8.48438C133.422 8.95312 134.234 9.59896 134.797 10.4219C135.37 11.2344 135.656 12.1615 135.656 13.2031H131.156C131.156 12.7656 131.062 12.375 130.875 12.0312C130.698 11.6771 130.417 11.401 130.031 11.2031C129.656 10.9948 129.167 10.8906 128.562 10.8906C128.062 10.8906 127.63 10.9792 127.266 11.1562C126.901 11.3229 126.62 11.5521 126.422 11.8438C126.234 12.125 126.141 12.4375 126.141 12.7812C126.141 13.0417 126.193 13.276 126.297 13.4844C126.411 13.6823 126.594 13.8646 126.844 14.0312C127.094 14.1979 127.417 14.3542 127.812 14.5C128.219 14.6354 128.719 14.7604 129.312 14.875C130.531 15.125 131.62 15.4531 132.578 15.8594C133.536 16.2552 134.297 16.7969 134.859 17.4844C135.422 18.1615 135.703 19.0521 135.703 20.1562C135.703 20.9062 135.536 21.5938 135.203 22.2188C134.87 22.8438 134.391 23.3906 133.766 23.8594C133.141 24.3177 132.391 24.6771 131.516 24.9375C130.651 25.1875 129.677 25.3125 128.594 25.3125C127.021 25.3125 125.688 25.0312 124.594 24.4688C123.51 23.9062 122.688 23.1927 122.125 22.3281C121.573 21.4531 121.297 20.5573 121.297 19.6406H125.562C125.583 20.2552 125.74 20.75 126.031 21.125C126.333 21.5 126.714 21.7708 127.172 21.9375C127.641 22.1042 128.146 22.1875 128.688 22.1875C129.271 22.1875 129.755 22.1094 130.141 21.9531C130.526 21.7865 130.818 21.5677 131.016 21.2969C131.224 21.0156 131.328 20.6927 131.328 20.3281Z" fill="#E1E1E6"/>
<path d="M59.5938 22.8281C59.5938 22.1615 59.8229 21.6042 60.2812 21.1562C60.75 20.7083 61.3698 20.4844 62.1406 20.4844C62.9115 20.4844 63.526 20.7083 63.9844 21.1562C64.4531 21.6042 64.6875 22.1615 64.6875 22.8281C64.6875 23.4948 64.4531 24.0521 63.9844 24.5C63.526 24.9479 62.9115 25.1719 62.1406 25.1719C61.3698 25.1719 60.75 24.9479 60.2812 24.5C59.8229 24.0521 59.5938 23.4948 59.5938 22.8281Z" fill="#61DCFB"/>
</svg>
